<svg id="visual" viewBox="0 0 900 600" width="900" height="600" xmlns="http://www.w3.org/2000/svg" xmlns:xlink="http://www.w3.org/1999/xlink" version="1.1"><rect x="0" y="0" width="900" height="600" fill="#fbfffe"></rect><path d="M605 600L616.3 585.7C627.7 571.3 650.3 542.7 640 514.2C629.7 485.7 586.3 457.3 564.3 428.8C542.3 400.3 541.7 371.7 558.7 343C575.7 314.3 610.3 285.7 621.3 257C632.3 228.3 619.7 199.7 620.3 171.2C621 142.7 635 114.3 639.5 85.8C644 57.3 639 28.7 636.5 14.3L634 0L900 0L900 14.3C900 28.7 900 57.3 900 85.8C900 114.3 900 142.7 900 171.2C900 199.7 900 228.3 900 257C900 285.7 900 314.3 900 343C900 371.7 900 400.3 900 428.8C900 457.3 900 485.7 900 514.2C900 542.7 900 571.3 900 585.7L900 600Z" fill="#79e4d4"></path><path d="M647 600L647.3 585.7C647.7 571.3 648.3 542.7 643.5 514.2C638.7 485.7 628.3 457.3 627.7 428.8C627 400.3 636 371.7 638.8 343C641.7 314.3 638.3 285.7 644 257C649.7 228.3 664.3 199.7 677.7 171.2C691 142.7 703 114.3 691.3 85.8C679.7 57.3 644.3 28.7 626.7 14.3L609 0L900 0L900 14.3C900 28.7 900 57.3 900 85.8C900 114.3 900 142.7 900 171.2C900 199.7 900 228.3 900 257C900 285.7 900 314.3 900 343C900 371.7 900 400.3 900 428.8C900 457.3 900 485.7 900 514.2C900 542.7 900 571.3 900 585.7L900 600Z" fill="#79e4d4"></path><path d="M745 600L730.8 585.7C716.7 571.3 688.3 542.7 691.2 514.2C694 485.7 728 457.3 733.7 428.8C739.3 400.3 716.7 371.7 710.5 343C704.3 314.3 714.7 285.7 717 257C719.3 228.3 713.7 199.7 706.7 171.2C699.7 142.7 691.3 114.3 686.8 85.8C682.3 57.3 681.7 28.7 681.3 14.3L681 0L900 0L900 14.3C900 28.7 900 57.3 900 85.8C900 114.3 900 142.7 900 171.2C900 199.7 900 228.3 900 257C900 285.7 900 314.3 900 343C900 371.7 900 400.3 900 428.8C900 457.3 900 485.7 900 514.2C900 542.7 900 571.3 900 585.7L900 600Z" fill="#79e4d4"></path><path d="M782 600L775 585.7C768 571.3 754 542.7 756.7 514.2C759.3 485.7 778.7 457.3 787.8 428.8C797 400.3 796 371.7 786.3 343C776.7 314.3 758.3 285.7 754.3 257C750.3 228.3 760.7 199.7 771.2 171.2C781.7 142.7 792.3 114.3 797 85.8C801.7 57.3 800.3 28.7 799.7 14.3L799 0L900 0L900 14.3C900 28.7 900 57.3 900 85.8C900 114.3 900 142.7 900 171.2C900 199.7 900 228.3 900 257C900 285.7 900 314.3 900 343C900 371.7 900 400.3 900 428.8C900 457.3 900 485.7 900 514.2C900 542.7 900 571.3 900 585.7L900 600Z" fill="#79e4d4"></path><path d="M802 600L811.2 585.7C820.3 571.3 838.7 542.7 846.3 514.2C854 485.7 851 457.3 850.5 428.8C850 400.3 852 371.7 844 343C836 314.3 818 285.7 814.2 257C810.3 228.3 820.7 199.7 826.5 171.2C832.3 142.7 833.7 114.3 838.3 85.8C843 57.3 851 28.7 855 14.3L859 0L900 0L900 14.3C900 28.7 900 57.3 900 85.8C900 114.3 900 142.7 900 171.2C900 199.7 900 228.3 900 257C900 285.7 900 314.3 900 343C900 371.7 900 400.3 900 428.8C900 457.3 900 485.7 900 514.2C900 542.7 900 571.3 900 585.7L900 600Z" fill="#79e4d4"></path></svg>